<svg width="242" height="259" viewBox="0 0 242 259" fill="none" xmlns="http://www.w3.org/2000/svg">
<rect x="160.111" y="258.27" width="87" height="28" transform="rotate(-116.181 160.111 258.27)" fill="#C4367B"/>
<rect width="87" height="28" transform="matrix(0.441205 -0.897406 -0.897406 -0.441205 81.2842 258.27)" fill="#C62976"/>
<rect width="87" height="28" transform="matrix(-0.994701 -0.10281 -0.10281 0.994701 229.418 144.945)" fill="#CF3C85"/>
<path d="M143.5 135.999L97.879 136L95.0003 163.852L142.5 163.854L143.5 135.999Z" fill="#C32977"/>
<rect x="11.9775" y="144.945" width="87" height="28" transform="rotate(-5.901 11.9775 144.945)" fill="#C23E89"/>
<rect x="150" y="231.617" width="87" height="28" transform="rotate(-17.816 150 231.617)" fill="#B63980"/>
<rect width="87" height="28" transform="matrix(-0.952044 -0.305962 -0.305962 0.952044 91.3945 231.617)" fill="#A42480"/>
<rect width="87" height="28" transform="matrix(0.144886 0.989448 0.989448 -0.144886 201 149.059)" fill="#C83579"/>
<rect x="40.3945" y="149.059" width="87" height="28" transform="rotate(98.3307 40.3945 149.059)" fill="#B1267D"/>
<rect width="87" height="28" transform="matrix(0.438773 0.898598 0.898598 -0.438773 60 55.4102)" fill="#F06643"/>
<rect x="129.271" y="196.445" width="87" height="28" transform="rotate(-116.098 129.271 196.445)" fill="#DA3171"/>
<rect x="190.488" y="55.4102" width="87" height="28" transform="rotate(116.026 190.488 55.4102)" fill="#C4367A"/>
<rect width="87" height="28" transform="matrix(0.76315 -0.646222 -0.646222 -0.76315 78.0947 77.5898)" fill="#FBA813"/>
<rect x="172.395" y="77.5898" width="87" height="28" transform="rotate(-139.743 172.395 77.5898)" fill="#CE2A73"/>
</svg>
